<svg version="1" xmlns="http://www.w3.org/2000/svg" width="682.667" height="682.667" viewBox="0 0 512.000000 512.000000"><path d="M0 256v256h512V0H0v256zm353-125v10h39v27h-39v62.6l4.5 4.4c9.7 9.5 17 24.6 19.5 40.2 1.7 10.8.8 32.1-1.8 42-10.6 39.5-46.2 62.3-110.2 70.4-10.8 1.3-24.8 1.8-69.7 2.1l-56.3.5v-28l59.8-.5c48.6-.3 61.8-.7 70.8-2 52.4-7.8 76-26.6 79-63 .6-7.1-1.1-24.7-2.5-24.7-.3 0-2.3 2.7-4.4 5.9-11.6 18-34.9 31-65.7 36.6-14.4 2.6-52.8 3.2-69.8 1.1-41.6-5.3-63.3-20-67.3-45.6-3.4-22.2 8.1-40.4 33.6-52.6 16.3-7.9 33.7-11.7 61.7-13.5 30-2 68.8 2.2 88.1 9.6 1.6.7 1.7-.8 1.7-22.4V168H121v-27h203v-20h29v10z"/><path d="M230.9 225c-26.9 2.6-45.8 9.5-55.4 20.2-4.9 5.3-6.5 9.5-6.5 16.5 0 14.4 10.7 24.6 31 29.6 22.6 5.6 62.5 4.9 83.5-1.4 21.4-6.4 35.6-20.3 39.4-38.7 2.2-10.5 2.1-10.6-7.3-15.2-9-4.4-22.4-8.2-35.2-10-10.6-1.5-38.8-2.1-49.5-1z"/></svg>